<mxfile host="www.draw.io" modified="2019-11-27T02:33:44.129Z" agent="Mozilla/5.0 (Windows NT 10.0; Win64; x64) AppleWebKit/537.36 (KHTML, like Gecko) Chrome/78.0.3904.108 Safari/537.36" etag="stTzVSkLtZWq7noRbXNU" version="12.3.1" type="github" pages="1">
  <diagram id="nb4zGDOYrDo4I1rTPAiC" name="第 1 页">
    <mxGraphModel dx="1422" dy="713" grid="1" gridSize="10" guides="1" tooltips="1" connect="1" arrows="1" fold="1" page="1" pageScale="1" pageWidth="827" pageHeight="1169" math="0" shadow="0">
      <root>
        <mxCell id="0"/>
        <mxCell id="1" parent="0"/>
        <mxCell id="J8wmZtk8soRL9oQwLkzZ-1" value="客户端" style="rounded=0;whiteSpace=wrap;html=1;" vertex="1" parent="1">
          <mxGeometry x="150" y="190" width="100" height="340" as="geometry"/>
        </mxCell>
        <mxCell id="J8wmZtk8soRL9oQwLkzZ-2" value="服务端" style="rounded=0;whiteSpace=wrap;html=1;" vertex="1" parent="1">
          <mxGeometry x="563" y="190" width="100" height="340" as="geometry"/>
        </mxCell>
        <mxCell id="J8wmZtk8soRL9oQwLkzZ-3" value="" style="endArrow=classic;html=1;exitX=1.04;exitY=0.076;exitDx=0;exitDy=0;exitPerimeter=0;" edge="1" parent="1" source="J8wmZtk8soRL9oQwLkzZ-1">
          <mxGeometry width="50" height="50" relative="1" as="geometry">
            <mxPoint x="310" y="300" as="sourcePoint"/>
            <mxPoint x="480" y="215" as="targetPoint"/>
          </mxGeometry>
        </mxCell>
        <mxCell id="J8wmZtk8soRL9oQwLkzZ-4" value="如果是2次握手&lt;br&gt;&lt;br&gt;第一次握手，卡住了" style="text;html=1;strokeColor=none;fillColor=none;align=center;verticalAlign=middle;whiteSpace=wrap;rounded=0;" vertex="1" parent="1">
          <mxGeometry x="330" y="160" width="140" height="50" as="geometry"/>
        </mxCell>
        <mxCell id="J8wmZtk8soRL9oQwLkzZ-5" value="" style="endArrow=classic;html=1;exitX=1;exitY=0.559;exitDx=0;exitDy=0;exitPerimeter=0;entryX=0.01;entryY=0.571;entryDx=0;entryDy=0;entryPerimeter=0;" edge="1" parent="1" source="J8wmZtk8soRL9oQwLkzZ-1" target="J8wmZtk8soRL9oQwLkzZ-2">
          <mxGeometry width="50" height="50" relative="1" as="geometry">
            <mxPoint x="280" y="430" as="sourcePoint"/>
            <mxPoint x="330" y="380" as="targetPoint"/>
          </mxGeometry>
        </mxCell>
        <mxCell id="J8wmZtk8soRL9oQwLkzZ-7" value="第一次握手" style="text;html=1;align=center;verticalAlign=middle;resizable=0;points=[];;labelBackgroundColor=#ffffff;" vertex="1" connectable="0" parent="J8wmZtk8soRL9oQwLkzZ-5">
          <mxGeometry x="-0.1274" relative="1" as="geometry">
            <mxPoint as="offset"/>
          </mxGeometry>
        </mxCell>
        <mxCell id="J8wmZtk8soRL9oQwLkzZ-6" value="等上面那个请求超时后，就会重新发起一次请求，这次是正常的" style="text;html=1;strokeColor=none;fillColor=none;align=center;verticalAlign=middle;whiteSpace=wrap;rounded=0;" vertex="1" parent="1">
          <mxGeometry x="310" y="330" width="180" height="40" as="geometry"/>
        </mxCell>
        <mxCell id="J8wmZtk8soRL9oQwLkzZ-8" value="" style="endArrow=classic;html=1;exitX=-0.02;exitY=0.674;exitDx=0;exitDy=0;exitPerimeter=0;entryX=1;entryY=0.665;entryDx=0;entryDy=0;entryPerimeter=0;" edge="1" parent="1" source="J8wmZtk8soRL9oQwLkzZ-2" target="J8wmZtk8soRL9oQwLkzZ-1">
          <mxGeometry width="50" height="50" relative="1" as="geometry">
            <mxPoint x="150" y="600" as="sourcePoint"/>
            <mxPoint x="200" y="550" as="targetPoint"/>
          </mxGeometry>
        </mxCell>
        <mxCell id="J8wmZtk8soRL9oQwLkzZ-10" value="第二次握手" style="text;html=1;align=center;verticalAlign=middle;resizable=0;points=[];;labelBackgroundColor=#ffffff;" vertex="1" connectable="0" parent="J8wmZtk8soRL9oQwLkzZ-8">
          <mxGeometry x="0.0933" relative="1" as="geometry">
            <mxPoint as="offset"/>
          </mxGeometry>
        </mxCell>
        <mxCell id="J8wmZtk8soRL9oQwLkzZ-11" value="等下面的请求完事后，这个卡住的请求，又发过去了" style="text;html=1;strokeColor=none;fillColor=none;align=center;verticalAlign=middle;whiteSpace=wrap;rounded=0;" vertex="1" parent="1">
          <mxGeometry x="340" y="230" width="150" height="10" as="geometry"/>
        </mxCell>
        <mxCell id="J8wmZtk8soRL9oQwLkzZ-12" value="" style="endArrow=classic;html=1;entryX=1.01;entryY=0.203;entryDx=0;entryDy=0;entryPerimeter=0;" edge="1" parent="1" target="J8wmZtk8soRL9oQwLkzZ-1">
          <mxGeometry width="50" height="50" relative="1" as="geometry">
            <mxPoint x="560" y="260" as="sourcePoint"/>
            <mxPoint x="420" y="500" as="targetPoint"/>
          </mxGeometry>
        </mxCell>
        <mxCell id="J8wmZtk8soRL9oQwLkzZ-13" value="第二次握手" style="text;html=1;align=center;verticalAlign=middle;resizable=0;points=[];;labelBackgroundColor=#ffffff;" vertex="1" connectable="0" parent="J8wmZtk8soRL9oQwLkzZ-12">
          <mxGeometry x="0.1909" y="1" relative="1" as="geometry">
            <mxPoint as="offset"/>
          </mxGeometry>
        </mxCell>
        <mxCell id="J8wmZtk8soRL9oQwLkzZ-14" value="&lt;font color=&quot;#ff0000&quot;&gt;此时，服务器会开辟资源，而客户端不认识这个服务器发过来的请求，因为下面的请求完事了，所以会一直等待着，浪费资源&lt;/font&gt;" style="text;html=1;strokeColor=none;fillColor=none;align=center;verticalAlign=middle;whiteSpace=wrap;rounded=0;" vertex="1" parent="1">
          <mxGeometry x="275" y="270" width="250" height="35" as="geometry"/>
        </mxCell>
        <mxCell id="J8wmZtk8soRL9oQwLkzZ-15" value="那什么不是四次，五次或者更多次握手请求呢？&lt;br&gt;&lt;br&gt;因为三次就能建立连接，再多也是浪费资源" style="text;html=1;strokeColor=#b85450;fillColor=#f8cecc;align=left;verticalAlign=middle;whiteSpace=wrap;rounded=0;" vertex="1" parent="1">
          <mxGeometry x="200" y="610" width="270" height="50" as="geometry"/>
        </mxCell>
      </root>
    </mxGraphModel>
  </diagram>
</mxfile>
